# xmcd
#
# Track frame offsets: 
#        150
#        18428
#        36847
#        53464
#        69617
#        87141
#        104505
#        121933
#        139201
#        157171
#        173532
#        192085
#
# Disc length: 2788 seconds
#
# Revision: 0
# Processed by: cddbd v1.5.2PL0 Copyright (c) Steve Scherf et al.
# Submitted via: ExactAudioCopyFreeDBPlugin 1.0
#
DISCID=9a0ae20c
DTITLE=Charlie Wilson - Love, Charlie
DYEAR=2013
DGENRE=R&B
TTITLE0=If I Believe
TTITLE1=I Still Have You
TTITLE2=I Think I'm In Love
TTITLE3=My Love Is All I Have
TTITLE4=Our Anniversary
TTITLE5=Turn Off The Lights
TTITLE6=A Million Ways To Love You
TTITLE7=Show You
TTITLE8=My Baby
TTITLE9=Oooh Wee
TTITLE10=Say
TTITLE11=Whisper (feat. Keith Sweat)
EXTD=
EXTT0=
EXTT1=
EXTT2=
EXTT3=
EXTT4=
EXTT5=
EXTT6=
EXTT7=
EXTT8=
EXTT9=
EXTT10=
EXTT11=
PLAYORDER=
